Hitting the Nuts is the 'true' story of the 2009 Scott County, Indiana Poker Championship as told by those who were there. This mockumentary follows the town preacher, busty waitress, lovable redneck dad, portly returning champion and a simple Amish farmer as they do battle in the town's annual, illegal Texas Hold 'em Tournament.




Video
 ID : 0
 Format : MPEG-4 Visual
 Format profile : Advanced Simple@L5
 Format settings, BVOP : Yes
 Format settings, QPel : No
 Format settings, GMC : No warppoints
 Format settings, Matrix : Default (H.263)
 Muxing mode : Packed bitstream
 Codec ID : XVID
 Codec ID/Hint : XviD
 Duration : 1h 37mn
 Bit rate : 891 Kbps
 Width : 656 pixels
 Height : 352 pixels
 Display aspect ratio : 1.864
 Frame rate : 23.976 fps
 Color space : YUV
 Chroma subsampling : 4:2:0
 Bit depth : 8 bits
 Scan type : Progressive
 Bits/(Pixel*Frame) : 0.161
 Stream size : 620 MiB (89%)
 Writing library : XviD 57

 Audio
 ID : 1
 Format : MPEG Audio
 Format version : Version 1
 Format profile : Layer 3
 Mode : Joint stereo
 Mode extension : MS Stereo
 Codec ID : 55
 Codec ID/Hint : MP3
 Duration : 1h 37mn
 Bit rate mode : Variable
 Bit rate : 96.3 Kbps
 Nominal bit rate : 112 Kbps
 Channel(s) : 2 channels
 Sampling rate : 48.0 KHz
 Stream size : 67.1 MiB (10%)
 Alignment : Aligned on interleaves
 Interleave, duration : 24 ms (0.58 video frame)
 Interleave, preload duration : 191 ms
 Writing library : LAME3.97 
 Encoding settings : -m j -V 4 -q 2 -lowpass 16 --abr 112


 IMDB 
http://www.imdb.com/title/tt1536082/




==================================     
http://thepiratebay.org/user/hiest
==================================



Screens:
 
http://leetleech.org/images/85500594075155334894.jpg